<svg xmlns="http://www.w3.org/2000/svg" viewBox="0 0 512 512">
  <defs>
    <linearGradient id="bg" x1="0%" x2="100%" y1="0%" y2="100%">
      <stop offset="0%" stop-color="#1a3027"/>
      <stop offset="100%" stop-color="#08100d"/>
    </linearGradient>
    <linearGradient id="gold" x1="0%" x2="100%" y1="0%" y2="100%">
      <stop offset="0%" stop-color="#f0dfb0"/>
      <stop offset="100%" stop-color="#dcbf83"/>
    </linearGradient>
  </defs>
  <rect width="512" height="512" rx="96" fill="url(#bg)"/>
  <rect x="34" y="34" width="444" height="444" rx="78" fill="none" stroke="url(#gold)" stroke-width="10" opacity="0.7"/>
  <circle cx="256" cy="136" r="42" fill="none" stroke="url(#gold)" stroke-width="10" opacity="0.85"/>
  <path d="M256 172v178" fill="none" stroke="url(#gold)" stroke-linecap="round" stroke-width="16"/>
  <path d="M256 210c-56 0-92 24-118 72 52-10 90 0 118 34" fill="none" stroke="url(#gold)" stroke-linecap="round" stroke-linejoin="round" stroke-width="16"/>
  <path d="M256 210c56 0 92 24 118 72-52-10-90 0-118 34" fill="none" stroke="url(#gold)" stroke-linecap="round" stroke-linejoin="round" stroke-width="16"/>
  <path d="M182 340c30 4 52 16 74 40" fill="none" stroke="url(#gold)" stroke-linecap="round" stroke-width="14"/>
  <path d="M330 340c-30 4-52 16-74 40" fill="none" stroke="url(#gold)" stroke-linecap="round" stroke-width="14"/>
  <circle cx="168" cy="284" r="10" fill="#f0dfb0"/>
  <circle cx="344" cy="284" r="10" fill="#f0dfb0"/>
  <circle cx="256" cy="392" r="12" fill="#f0dfb0"/>
</svg>
